<svg xmlns="http://www.w3.org/2000/svg" xmlns:xlink="http://www.w3.org/1999/xlink" version="1.0" x="0px" y="0px" viewBox="1 0.9000000357627869 126 200.19999694824219" style="enable-background:new 0 0 128 128;" xml:space="preserve" width="126" height="126.19999694824219">
    <g>
        <path d="M111.4,16.1H93.9V0.9h-5v15.3H75.4V0.9h-5v15.3H57V0.9h-5v15.3H38.5V0.9h-5v15.3H16v17.5H1v5H16v13.4H1v5H16v13.4H1v5H16   V89H1v5H16v17.5h17.6v15.6h5v-15.6H52v15.6h5v-15.6h13.4v15.6h5v-15.6h13.4v15.6h5v-15.6h17.5V94H127v-5h-15.6V75.6H127v-5h-15.6   V57.1H127v-5h-15.6V38.7H127v-5h-15.6V16.1z M106.4,106.5H21V21.1h85.4V106.5z"></path>
        <path d="M62.3,65.7H45.6v16.6h16.6V65.7z M57.3,77.4h-6.6v-6.6h6.6V77.4z"></path>
        <path d="M82.4,65.7H65.7v16.6h16.6V65.7z M77.4,77.4h-6.6v-6.6h6.6V77.4z"></path>
        <path d="M102.5,65.7H85.8v16.6h16.6V65.7z M97.5,77.4h-6.6v-6.6h6.6V77.4z"></path>
        <path d="M42.2,65.7H25.5v16.6h16.6V65.7z M37.2,77.4h-6.6v-6.6h6.6V77.4z"></path>
        <path d="M62.3,45.6H45.6v16.6h16.6V45.6z M57.3,57.3h-6.6v-6.6h6.6V57.3z"></path>
        <path d="M82.4,45.6H65.7v16.6h16.6V45.6z M77.4,57.3h-6.6v-6.6h6.6V57.3z"></path>
        <path d="M102.5,45.6H85.8v16.6h16.6V45.6z M97.5,57.3h-6.6v-6.6h6.6V57.3z"></path>
        <path d="M42.2,45.6H25.5v16.6h16.6V45.6z M37.2,57.3h-6.6v-6.6h6.6V57.3z"></path>
        <path d="M62.3,85.8H45.6v16.6h16.6V85.8z M57.3,97.5h-6.6v-6.6h6.6V97.5z"></path>
        <path d="M82.4,85.8H65.7v16.6h16.6V85.8z M77.4,97.5h-6.6v-6.6h6.6V97.5z"></path>
        <path d="M102.5,85.8H85.8v16.6h16.6V85.8z M97.5,97.5h-6.6v-6.6h6.6V97.5z"></path>
        <path d="M42.2,85.8H25.5v16.6h16.6V85.8z M37.2,97.5h-6.6v-6.6h6.6V97.5z"></path>
        <path d="M62.3,25.5H45.6v16.6h16.6V25.5z M57.3,37.2h-6.6v-6.6h6.6V37.2z"></path>
        <path d="M82.4,25.5H65.7v16.6h16.6V25.5z M77.4,37.2h-6.6v-6.6h6.6V37.2z"></path>
        <path d="M102.5,25.5H85.8v16.6h16.6V25.5z M97.5,37.2h-6.6v-6.6h6.6V37.2z"></path>
        <path d="M42.2,25.5H25.5v16.6h16.6V25.5z M37.2,37.2h-6.6v-6.6h6.6V37.2z"></path>
    </g>
    <g transform="translate(13, 135)">
        <path stroke="none" fill="#0fa186" fill-opacity="1" 
        d="M25.49 13.46L25.49 14.18L25.49 14.18Q24.37 14.44 23.83 14.96L23.83 14.96L23.83 
        14.96Q23.29 15.48 23.11 16.56L23.11 16.56L23.11 16.56Q22.93 17.64 22.93 19.80L22.93 
        19.80L22.93 38.95L22.93 38.95Q22.21 38.88 21.74 38.88L21.74 38.88L21.74 38.88Q21.35 
        38.88 20.41 38.95L20.41 38.95L4.46 21.53L4.46 31.90L4.46 31.90Q4.46 34.56 4.68 35.73L4.68 
        35.73L4.68 35.73Q4.90 36.90 5.63 37.44L5.63 37.44L5.63 37.44Q6.37 37.98 8.10 38.23L8.10 
        38.23L8.10 38.95L8.10 38.95Q6.62 38.84 4.07 38.84L4.07 38.84L4.07 38.84Q2.16 38.84 1.08 
        38.95L1.08 38.95L1.08 38.23L1.08 38.23Q2.20 37.98 2.74 37.46L2.74 37.46L2.74 37.46Q3.28 
        36.94 3.46 35.86L3.46 35.86L3.46 35.86Q3.64 34.78 3.64 32.62L3.64 32.62L3.64 17.28L3.64 
        17.28Q3.64 15.91 3.44 15.30L3.44 15.30L3.44 15.30Q3.24 14.69 2.74 14.47L2.74 14.47L2.74 
        14.47Q2.23 14.26 1.08 14.18L1.08 14.18L1.08 13.46L1.08 13.46Q2.16 13.57 4.07 13.57L4.07 
        13.57L4.07 13.57Q6.01 13.57 7.38 13.46L7.38 13.46L22.10 29.02L22.10 20.52L22.10 20.52Q22.10 
        17.86 21.89 16.69L21.89 16.69L21.89 16.69Q21.67 15.52 20.93 14.98L20.93 14.98L20.93 
        14.98Q20.20 14.44 18.47 14.18L18.47 14.18L18.47 13.46L18.47 13.46Q19.94 13.57 22.50 
        13.57L22.50 13.57L22.50 13.57Q24.41 13.57 25.49 13.46L25.49 13.46ZM52.74 37.04L53.21 
        37.51L53.21 37.51Q52.13 38.59 50.83 39.02L50.83 39.02L50.83 39.02Q49.54 39.46 47.81 
        39.46L47.81 39.46L47.81 39.46Q45.32 39.46 43.96 38.57L43.96 38.57L43.96 38.57Q42.59 
        37.69 42.26 35.57L42.26 35.57L41.72 31.97L41.72 31.97Q41.36 29.45 40.73 28.15L40.73 
        28.15L40.73 28.15Q40.10 26.86 38.84 26.86L38.84 26.86L37.22 26.86L37.22 35.14L37.22 
        35.14Q37.22 36.50 37.42 37.12L37.42 37.12L37.42 37.12Q37.62 37.73 38.12 37.94L38.12 
        37.94L38.12 37.94Q38.63 38.16 39.78 38.23L39.78 38.23L39.78 38.95L39.78 38.95Q37.69 
        38.84 33.77 38.84L33.77 38.84L33.77 38.84Q29.41 38.84 27.36 38.95L27.36 38.95L27.36 
        38.23L27.36 38.23Q28.51 38.16 29.03 37.94L29.03 37.94L29.03 37.94Q29.56 37.73 29.74 
        37.12L29.74 37.12L29.74 37.12Q29.92 36.50 29.92 35.14L29.92 35.14L29.92 17.28L29.92 
        17.28Q29.92 15.91 29.72 15.30L29.72 15.30L29.72 15.30Q29.52 14.69 29.02 14.47L29.02 
        14.47L29.02 14.47Q28.51 14.26 27.36 14.18L27.36 14.18L27.36 13.46L27.36 13.46Q29.41 
        13.57 33.55 13.57L33.55 13.57L37.69 13.54L37.69 13.54Q38.41 13.50 39.35 13.50L39.35 
        13.50L39.35 13.50Q44.82 13.50 47.50 15.05L47.50 15.05L47.50 15.05Q50.18 16.60 50.18 
        19.76L50.18 19.76L50.18 19.76Q50.18 22.46 48.17 24.37L48.17 24.37L48.17 24.37Q46.15 
        26.28 41.40 26.71L41.40 26.71L41.40 26.71Q45.07 26.96 46.94 28.10L46.94 28.10L46.94 
        28.10Q48.82 29.23 49.25 31.43L49.25 31.43L50.00 35.17L50.00 35.17Q50.26 36.50 50.62 
        37.01L50.62 37.01L50.62 37.01Q50.98 37.51 51.62 37.51L51.62 37.51L51.62 37.51Q52.27 
        37.51 52.74 37.04L52.74 37.04ZM39.17 14.18L39.17 14.18Q38.34 14.18 37.93 14.44L37.93
         14.44L37.93 14.44Q37.51 14.69 37.37 15.34L37.37 15.34L37.37 15.34Q37.22 15.98 37.22 
         17.28L37.22 17.28L37.22 26.14L38.20 26.14L38.20 26.14Q40.75 26.14 41.69 24.57L41.69 
         24.57L41.69 24.57Q42.62 23.00 42.62 20.16L42.62 20.16L42.62 20.16Q42.62 17.21 41.81 
         15.70L41.81 15.70L41.81 15.70Q41.00 14.18 39.17 14.18L39.17 14.18ZM74.92 13.57L74.92
          13.57Q76.61 13.57 77.69 13.46L77.69 13.46L77.69 14.18L77.69 14.18Q76.75 14.65 75.80 
          15.88L75.80 15.88L75.80 15.88Q74.84 17.10 74.09 19.22L74.09 19.22L67.07 38.95L67.07 
          38.95Q65.92 38.88 65.16 38.88L65.16 38.88L65.16 38.88Q64.44 38.88 63.29 38.95L63.29 
          38.95L53.86 16.49L53.86 16.49Q53.39 15.34 52.83 14.78L52.83 14.78L52.83 14.78Q52.27 
          14.22 51.73 14.18L51.73 14.18L51.73 13.46L51.73 13.46Q54.32 13.57 58.28 13.57L58.28 
          13.57L58.28 13.57Q62.39 13.57 64.33 13.46L64.33 13.46L64.33 14.18L64.33 14.18Q62.96 
          14.26 62.39 14.51L62.39 14.51L62.39 14.51Q61.81 14.76 61.81 15.52L61.81 15.52L61.81 
          15.52Q61.81 16.13 62.24 17.21L62.24 17.21L68.47 32.54L71.96 22.75L71.96 22.75Q73.15
           19.44 73.15 17.42L73.15 17.42L73.15 17.42Q73.15 14.29 70.20 14.18L70.20 14.18L70.20
            13.46L70.20 13.46Q72.90 13.57 74.92 13.57L74.92 13.57ZM92.52 12.96L92.52 12.96Q94.82 
            12.96 96.48 13.57L96.48 13.57L96.48 13.57Q98.14 14.18 99.50 15.30L99.50 15.30L99.50 
            15.30Q99.90 15.62 100.22 15.62L100.22 15.62L100.22 15.62Q100.58 15.62 100.80 15.10L100.80 
            15.10L100.80 15.10Q101.02 14.58 101.12 13.46L101.12 13.46L101.95 13.46L101.95 13.46Q101.81
             16.02 101.81 22.46L101.81 22.46L100.98 22.46L100.98 22.46Q100.73 19.62 100.04 17.96L100.04 
             17.96L100.04 17.96Q99.36 16.31 97.67 15.16L97.67 15.16L97.67 15.16Q96.91 14.65 95.92 14.36L95.92
              14.36L95.92 14.36Q94.93 14.08 93.96 14.08L93.96 14.08L93.96 14.08Q91.37 14.08 89.77 15.89L89.77
               15.89L89.77 15.89Q88.16 17.71 87.50 20.48L87.50 20.48L87.50 20.48Q86.83 23.26 86.83 26.28L86.83 
               26.28L86.83 26.28Q86.83 32.54 88.36 35.64L88.36 35.64L88.36 35.64Q89.89 38.74 92.63 38.74L92.63 
               38.74L92.63 38.74Q93.74 38.74 94.39 38.30L94.39 38.30L94.39 38.30Q95.15 37.76 95.15 36.50L95.15 
               36.50L95.15 32.90L95.15 32.90Q95.15 31.10 94.86 30.26L94.86 30.26L94.86 30.26Q94.57 29.41 93.83 
               29.11L93.83 29.11L93.83 29.11Q93.10 28.80 91.51 28.73L91.51 28.73L91.51 28.01L91.51 28.01Q93.96 
               28.12 98.39 28.12L98.39 28.12L98.39 28.12Q102.10 28.12 103.93 28.01L103.93 28.01L103.93 28.73L103.93
            28.73Q103.28 28.80 102.98 29.02L102.98 29.02L102.98 29.02Q102.67 29.23 102.56 29.84L102.56 
            29.84L102.56 29.84Q102.46 30.46 102.46 31.82L102.46 31.82L102.46 38.95L101.74 38.95L101.74 
            38.95Q101.70 38.20 101.41 37.55L101.41 37.55L101.41 37.55Q101.12 36.90 100.62 36.90L100.62 
            36.90L100.62 36.90Q99.86 36.90 98.17 37.73L98.17 37.73L98.17 37.73Q94.57 39.46 92.09 39.46L92.09
             39.46L92.09 39.46Q85.39 39.46 81.97 36.07L81.97 36.07L81.97 36.07Q78.55 32.69 78.55 26.42L78.55
              26.42L78.55 26.42Q78.55 22.46 80.33 19.40L80.33 19.40L80.33 19.40Q82.12 16.34 85.28 14.65L85.28 
              14.65L85.28 14.65Q88.45 12.96 92.52 12.96L92.52 12.96Z" 
              transform="rotate(0 52.50499927997589 26.210000038146973)"></path>
    </g>
    <g transform="translate(-35, 185)">
    <path stroke="none" fill="#0fa186" fill-opacity="1" d="M1.56 13.95L1.56 4.05L5.05 4.05L5.05 4.05Q6.67 4.05 7.48 
    4.72L7.48 4.72L7.48 4.72Q8.28 5.40 8.28 6.67L8.28 6.67L8.28 6.67Q8.28 7.54 7.81 8.14L7.81 8.14L7.81 8.14Q7.33 
    8.74 6.46 8.93L6.46 8.93L6.46 8.94L6.46 8.94Q7.42 9.09 7.99 9.72L7.99 9.72L7.99 9.72Q8.55 10.35 8.55 11.28L8.55 
    11.28L8.55 11.28Q8.55 12.55 7.64 13.25L7.64 13.25L7.64 13.25Q6.73 13.95 5.05 13.95L5.05 13.95L1.56 13.95ZM2.31
     8.61L5.07 8.61L5.07 8.61Q7.48 8.61 7.48 6.67L7.48 6.67L7.48 6.67Q7.48 4.74 5.07 4.74L5.07 4.74L2.31 4.74L2.31 
     8.61ZM2.31 13.26L5.21 13.26L5.21 13.26Q6.46 13.26 7.11 12.75L7.11 12.75L7.11 12.75Q7.75 12.24 7.75 11.28L7.75 11.28L7.75 11.28Q7.75 10.30 7.11 9.80L7.11 9.80L7.11 9.80Q6.46 9.30 5.21 9.30L5.21 9.30L2.31 9.30L2.31 13.26ZM15.91 6.30L15.91 6.30Q17.57 6.30 18.52 7.34L18.52 7.34L18.52 7.34Q19.48 8.38 19.48 10.20L19.48 10.20L19.48 10.20Q19.48 12.01 18.52 13.06L18.52 13.06L18.52 13.06Q17.57 14.10 15.91 14.10L15.91 14.10L15.91 14.10Q14.24 14.10 13.29 13.06L13.29 13.06L13.29 13.06Q12.34 12.01 12.34 10.20L12.34 10.20L12.34 10.20Q12.34 8.38 13.29 7.34L13.29 7.34L13.29 7.34Q14.24 6.30 15.91 6.30L15.91 6.30ZM15.91 6.94L15.91 6.94Q14.59 6.94 13.84 7.81L13.84 7.81L13.84 7.81Q13.09 8.68 13.09 10.20L13.09 10.20L13.09 10.20Q13.09 11.71 13.84 12.58L13.84 12.58L13.84 12.58Q14.59 13.46 15.91 13.46L15.91 13.46L15.91 13.46Q17.23 13.46 17.98 12.58L17.98 12.58L17.98 12.58Q18.73 11.71 18.73 10.20L18.73 10.20L18.73 10.20Q18.73 8.68 17.98 7.81L17.98 7.81L17.98 7.81Q17.23 6.94 15.91 6.94L15.91 6.94ZM26.75 6.30L26.75 6.30Q28.42 6.30 29.37 7.34L29.37 7.34L29.37 7.34Q30.32 8.38 30.32 10.20L30.32 10.20L30.32 10.20Q30.32 12.01 29.37 13.06L29.37 13.06L29.37 13.06Q28.42 14.10 26.75 14.10L26.75 14.10L26.75 14.10Q25.09 14.10 24.14 13.06L24.14 13.06L24.14 13.06Q23.18 12.01 23.18 10.20L23.18 10.20L23.18 10.20Q23.18 8.38 24.14 7.34L24.14 7.34L24.14 7.34Q25.09 6.30 26.75 6.30L26.75 6.30ZM26.75 6.94L26.75 6.94Q25.43 6.94 24.68 7.81L24.68 7.81L24.68 7.81Q23.93 8.68 23.93 10.20L23.93 10.20L23.93 10.20Q23.93 11.71 24.68 12.58L24.68 12.58L24.68 12.58Q25.43 13.46 26.75 13.46L26.75 13.46L26.75 13.46Q28.07 13.46 28.82 12.58L28.82 12.58L28.82 12.58Q29.57 11.71 29.57 10.20L29.57 10.20L29.57 10.20Q29.57 8.68 28.82 7.81L28.82 7.81L28.82 7.81Q28.07 6.94 26.75 6.94L26.75 6.94ZM35.20 3L35.20 12.13L35.20 12.13Q35.20 12.82 35.42 13.11L35.42 13.11L35.42 13.11Q35.64 13.39 36.15 13.39L36.15 13.39L36.15 13.39Q36.45 13.39 36.66 13.35L36.66 13.35L36.66 13.35Q36.87 13.30 37.14 13.18L37.14 13.18L37.03 13.90L37.03 13.90Q36.62 14.10 36.05 14.10L36.05 14.10L36.05 14.10Q35.23 14.10 34.84 13.64L34.84 13.64L34.84 13.64Q34.45 13.18 34.45 12.21L34.45 12.21L34.45 3L35.20 3ZM46.80 10.02L46.80 10.02Q46.80 10.27 46.77 10.51L46.77 10.51L40.82 10.51L40.82 10.51Q40.89 11.89 41.64 12.67L41.64 12.67L41.64 12.67Q42.38 13.44 43.63 13.44L43.63 13.44L43.63 13.44Q44.51 13.44 45.15 13.08L45.15 13.08L45.15 13.08Q45.78 12.72 46.07 12.06L46.07 12.06L46.70 12.39L46.70 12.39Q46.28 13.21 45.50 13.66L45.50 13.66L45.50 13.66Q44.72 14.10 43.63 14.10L43.63 14.10L43.63 14.10Q41.96 14.10 41.02 13.06L41.02 13.06L41.02 13.06Q40.08 12.03 40.08 10.20L40.08 10.20L40.08 10.20Q40.08 8.37 40.99 7.33L40.99 7.33L40.99 7.33Q41.90 6.30 43.53 6.30L43.53 6.30L43.53 6.30Q45.06 6.30 45.93 7.32L45.93 7.32L45.93 7.32Q46.80 8.34 46.80 10.02L46.80 10.02ZM43.53 6.96L43.53 6.96Q42.32 6.96 41.61 7.72L41.61 7.72L41.61 7.72Q40.91 8.47 40.82 9.84L40.82 9.84L46.10 9.84L46.10 9.84Q46.02 8.49 45.36 7.72L45.36 7.72L45.36 7.72Q44.69 6.96 43.53 6.96L43.53 6.96ZM56.98 13.46L56.98 13.46Q57.35 13.46 57.56 13.35L57.56 13.35L57.52 13.95L57.52 13.95Q57.25 14.10 56.78 14.10L56.78 14.10L56.78 14.10Q56.26 14.10 55.93 13.81L55.93 13.81L55.93 13.81Q55.60 13.53 55.55 12.82L55.55 12.82L55.55 12.82Q55.21 13.42 54.44 13.76L54.44 13.76L54.44 13.76Q53.68 14.10 52.84 14.10L52.84 14.10L52.84 14.10Q51.73 14.10 51.06 13.60L51.06 13.60L51.06 13.60Q50.39 13.11 50.39 12.20L50.39 12.20L50.39 12.20Q50.39 10.46 53.24 9.95L53.24 9.95L55.54 9.54L55.54 8.88L55.54 8.88Q55.54 7.98 55.01 7.47L55.01 7.47L55.01 7.47Q54.47 6.96 53.50 6.96L53.50 6.96L53.50 6.96Q51.71 6.96 51.10 8.55L51.10 8.55L50.53 8.13L50.53 8.13Q50.86 7.24 51.62 6.77L51.62 6.77L51.62 6.77Q52.39 6.30 53.50 6.30L53.50 6.30L53.50 6.30Q54.80 6.30 55.55 6.94L55.55 6.94L55.55 6.94Q56.29 7.57 56.29 8.79L56.29 8.79L56.29 12.66L56.29 12.66Q56.29 13.46 56.98 13.46L56.98 13.46ZM52.91 13.44L52.91 13.44Q53.54 13.44 54.14 13.22L54.14 13.22L54.14 13.22Q54.74 13.00 55.14 12.58L55.14 12.58L55.14 12.58Q55.54 12.15 55.54 11.55L55.54 11.55L55.54 10.15L53.48 10.53L53.48 10.53Q52.27 10.75 51.71 11.16L51.71 11.16L51.71 11.16Q51.16 11.56 51.16 12.20L51.16 12.20L51.16 12.20Q51.16 12.79 51.62 13.12L51.62 13.12L51.62 13.12Q52.09 13.44 52.91 13.44L52.91 13.44ZM64.60 6.30L64.60 6.30Q65.89 6.30 66.68 7.02L66.68 7.02L66.68 7.02Q67.47 7.74 67.47 9.09L67.47 9.09L67.47 13.95L66.72 13.95L66.72 9.33L66.72 9.33Q66.72 8.13 66.13 7.54L66.13 7.54L66.13 7.54Q65.55 6.96 64.53 6.96L64.53 6.96L64.53 6.96Q63.81 6.96 63.19 7.29L63.19 7.29L63.19 7.29Q62.58 7.62 62.21 8.25L62.21 8.25L62.21 8.25Q61.84 8.88 61.84 9.72L61.84 9.72L61.84 13.95L61.09 13.95L61.09 6.45L61.77 6.45L61.80 7.96L61.80 7.96Q62.16 7.15 62.90 6.73L62.90 6.73L62.90 6.73Q63.64 6.30 64.60 6.30L64.60 6.30ZM82.04 3.90L82.04 3.90Q84.83 3.90 85.78 6.09L85.78 6.09L85.13 6.61L85.13 6.61Q84.76 5.55 84.02 5.07L84.02 5.07L84.02 5.07Q83.27 4.59 82.06 4.59L82.06 4.59L82.06 4.59Q81.19 4.59 80.54 4.86L80.54 4.86L80.54 4.86Q79.90 5.13 79.56 5.59L79.56 5.59L79.56 5.59Q79.22 6.06 79.22 6.64L79.22 6.64L79.22 6.64Q79.22 7.21 79.51 7.59L79.51 7.59L79.51 7.59Q79.79 7.96 80.48 8.23L80.48 8.23L80.48 8.23Q81.16 8.49 82.36 8.70L82.36 8.70L82.36 8.70Q84.29 9.03 85.10 9.66L85.10 9.66L85.10 9.66Q85.91 10.29 85.91 11.40L85.91 11.40L85.91 11.40Q85.91 12.20 85.45 12.81L85.45 12.81L85.45 12.81Q84.98 13.42 84.14 13.76L84.14 13.76L84.14 13.76Q83.29 14.10 82.19 14.10L82.19 14.10L82.19 14.10Q80.63 14.10 79.56 13.48L79.56 13.48L79.56 13.48Q78.49 12.85 78.10 11.73L78.10 11.73L78.76 11.22L78.76 11.22Q79.06 12.29 79.97 12.85L79.97 12.85L79.97 12.85Q80.87 13.41 82.21 13.41L82.21 13.41L82.21 13.41Q83.50 13.41 84.32 12.88L84.32 12.88L84.32 12.88Q85.13 12.36 85.13 11.45L85.13 11.45L85.13 11.45Q85.13 10.65 84.47 10.18L84.47 10.18L84.47 10.18Q83.80 9.72 82.15 9.43L82.15 9.43L82.15 9.43Q80.75 9.20 79.94 8.85L79.94 8.85L79.94 8.85Q79.13 8.50 78.78 7.99L78.78 7.99L78.78 7.99Q78.43 7.48 78.43 6.72L78.43 6.72L78.43 6.72Q78.43 5.95 78.87 5.31L78.87 5.31L78.87 5.31Q79.31 4.66 80.13 4.28L80.13 4.28L80.13 4.28Q80.95 3.90 82.04 3.90L82.04 3.90ZM95.47 6.45L96.22 6.45L96.22 13.95L95.55 13.95L95.52 12.46L95.52 12.46Q95.14 13.26 94.39 13.68L94.39 13.68L94.39 13.68Q93.64 14.10 92.62 14.10L92.62 14.10L92.62 14.10Q91.39 14.10 90.66 13.42L90.66 13.42L90.66 13.42Q89.92 12.73 89.92 11.40L89.92 11.40L89.92 6.45L90.67 6.45L90.67 11.22L90.67 11.22Q90.67 13.44 92.74 13.44L92.74 13.44L92.74 13.44Q93.57 13.44 94.19 13.08L94.19 13.08L94.19 13.08Q94.81 12.72 95.14 12.10L95.14 12.10L95.14 12.10Q95.47 11.49 95.47 10.75L95.47 10.75L95.47 6.45ZM104.40 6.30L104.40 6.30Q105.99 6.30 106.92 7.33L106.92 7.33L106.92 7.33Q107.84 8.37 107.84 10.20L107.84 10.20L107.84 10.20Q107.84 12.03 106.92 13.06L106.92 13.06L106.92 13.06Q105.99 14.10 104.40 14.10L104.40 14.10L104.40 14.10Q103.44 14.10 102.72 13.63L102.72 13.63L102.72 13.63Q101.99 13.17 101.64 12.36L101.64 12.36L101.64 17.10L100.89 17.10L100.89 6.45L101.57 6.45L101.61 8.14L101.61 8.14Q101.93 7.27 102.66 6.79L102.66 6.79L102.66 6.79Q103.38 6.30 104.40 6.30L104.40 6.30ZM104.31 13.44L104.31 13.44Q105.62 13.44 106.35 12.58L106.35 12.58L106.35 12.58Q107.09 11.71 107.09 10.20L107.09 10.20L107.09 10.20Q107.09 8.68 106.35 7.82L106.35 7.82L106.35 7.82Q105.62 6.96 104.31 6.96L104.31 6.96L104.31 6.96Q103.14 6.96 102.42 7.75L102.42 7.75L102.42 7.75Q101.70 8.55 101.64 9.93L101.64 9.93L101.64 10.47L101.64 10.47Q101.70 11.85 102.42 12.64L102.42 12.64L102.42 12.64Q103.14 13.44 104.31 13.44L104.31 13.44ZM118.27 10.02L118.27 10.02Q118.27 10.27 118.24 10.51L118.24 10.51L112.28 10.51L112.28 10.51Q112.36 11.89 113.10 12.67L113.10 12.67L113.10 12.67Q113.84 13.44 115.09 13.44L115.09 13.44L115.09 13.44Q115.97 13.44 116.61 13.08L116.61 13.08L116.61 13.08Q117.25 12.72 117.53 12.06L117.53 12.06L118.16 12.39L118.16 12.39Q117.74 13.21 116.96 13.66L116.96 13.66L116.96 13.66Q116.18 14.10 115.09 14.10L115.09 14.10L115.09 14.10Q113.42 14.10 112.49 13.06L112.49 13.06L112.49 13.06Q111.55 12.03 111.55 10.20L111.55 10.20L111.55 10.20Q111.55 8.37 112.46 7.33L112.46 7.33L112.46 7.33Q113.36 6.30 115.00 6.30L115.00 6.30L115.00 6.30Q116.53 6.30 117.40 7.32L117.40 7.32L117.40 7.32Q118.27 8.34 118.27 10.02L118.27 10.02ZM115.00 6.96L115.00 6.96Q113.78 6.96 113.08 7.72L113.08 7.72L113.08 7.72Q112.37 8.47 112.28 9.84L112.28 9.84L117.56 9.84L117.56 9.84Q117.49 8.49 116.82 7.72L116.82 7.72L116.82 7.72Q116.15 6.96 115.00 6.96L115.00 6.96ZM125.56 6.30L125.56 6.30Q126.16 6.30 126.51 6.55L126.51 6.55L126.31 7.26L126.31 7.26Q125.97 6.99 125.35 6.99L125.35 6.99L125.35 6.99Q124.78 6.99 124.28 7.34L124.28 7.34L124.28 7.34Q123.78 7.69 123.47 8.33L123.47 8.33L123.47 8.33Q123.16 8.97 123.16 9.75L123.16 9.75L123.16 13.95L122.41 13.95L122.41 6.45L123.04 6.45L123.13 7.98L123.13 7.98Q123.45 7.18 124.07 6.74L124.07 6.74L124.07 6.74Q124.69 6.30 125.56 6.30L125.56 6.30ZM133.59 6.30L133.59 6.30Q135.19 6.30 136.11 7.33L136.11 7.33L136.11 7.33Q137.03 8.37 137.03 10.20L137.03 10.20L137.03 10.20Q137.03 12.03 136.11 13.06L136.11 13.06L136.11 13.06Q135.19 14.10 133.59 14.10L133.59 14.10L133.59 14.10Q132.63 14.10 131.91 13.63L131.91 13.63L131.91 13.63Q131.18 13.17 130.84 12.36L130.84 12.36L130.84 17.10L130.09 17.10L130.09 6.45L130.76 6.45L130.81 8.14L130.81 8.14Q131.12 7.27 131.85 6.79L131.85 6.79L131.85 6.79Q132.57 6.30 133.59 6.30L133.59 6.30ZM133.50 13.44L133.50 13.44Q134.81 13.44 135.54 12.58L135.54 12.58L135.54 12.58Q136.28 11.71 136.28 10.20L136.28 10.20L136.28 10.20Q136.28 8.68 135.54 7.82L135.54 7.82L135.54 7.82Q134.81 6.96 133.50
     6.96L133.50 6.96L133.50 6.96Q132.34 6.96 131.62 
     7.75L131.62 7.75L131.62 7.75Q130.90 8.55 130.84 9.93L130.84 
     9.93L130.84 10.47L130.84 10.47Q130.90 11.85 131.62 12.64L131.62 12.64L131.62 12.64Q132.34 13.44 
     133.50 13.44L133.50 13.44ZM144.31 6.30L144.31 6.30Q145.97 6.30 146.93 7.34L146.93 7.34L146.93 
     7.34Q147.88 8.38 147.88 10.20L147.88 10.20L147.88 10.20Q147.88 12.01 146.93 13.06L146.93 13.06L146.93 
     13.06Q145.97 14.10 144.31 14.10L144.31 14.10L144.31 14.10Q142.64 14.10 141.69 13.06L141.69 13.06L141.69 
     13.06Q140.74 12.01 140.74 10.20L140.74 10.20L140.74 10.20Q140.74 8.38 141.69 7.34L141.69 7.34L141.69 
     7.34Q142.64 6.30 144.31 6.30L144.31 6.30ZM144.31 6.94L144.31 6.94Q142.99 6.94 142.24 7.81L142.24 7.81L142.24 
     7.81Q141.49 8.68 141.49 10.20L141.49 10.20L141.49 10.20Q141.49 11.71 142.24 12.58L142.24 12.58L142.24 
     12.58Q142.99 13.46 144.31 13.46L144.31 13.46L144.31 13.46Q145.63 13.46 146.38 12.58L146.38 12.58L146.38 
     12.58Q147.13 11.71 147.13 10.20L147.13 10.20L147.13 10.20Q147.13 8.68 146.38 7.81L146.38 7.81L146.38 
     7.81Q145.63 6.94 144.31 6.94L144.31 6.94ZM154.51 14.10L154.51 14.10Q153.37 14.10 152.53 13.65L152.53 
     13.65L152.53 13.65Q151.69 13.20 151.38 12.34L151.38 12.34L151.99 11.94L151.99 11.94Q152.22 12.69 152.91 13.06L152.91 13.06L152.91 13.06Q153.60 13.44 154.60 13.44L154.60 13.44L154.60 13.44Q155.62 13.44 156.20 13.05L156.20 13.05L156.20 13.05Q156.78 12.66 156.78 12.01L156.78 12.01L156.78 12.01Q156.78 11.46 156.28 11.13L156.28 11.13L156.28 11.13Q155.79 10.80 154.54 10.57L154.54 10.57L154.54 10.57Q152.97 10.29 152.32 9.81L152.32 9.81L152.32 9.81Q151.68 9.33 151.68 8.45L151.68 8.45L151.68 8.45Q151.68 7.86 152.04 7.36L152.04 7.36L152.04 7.36Q152.40 6.87 153.06 6.58L153.06 6.58L153.06 6.58Q153.72 6.30 154.56 6.30L154.56 6.30L154.56 6.30Q155.74 6.30 156.46 6.75L156.46 6.75L156.46 6.75Q157.17 7.20 157.44 8.13L157.44 8.13L156.79 8.50L156.79 8.50Q156.37 6.96 154.56 6.96L154.56 6.96L154.56 6.96Q153.96 6.96 153.47 7.15L153.47 7.15L153.47 7.15Q152.98 7.35 152.71 7.67L152.71 7.67L152.71 7.67Q152.43 7.99 152.43 8.37L152.43 8.37L152.43 8.37Q152.43 8.98 152.94 9.33L152.94 9.33L152.94 9.33Q153.45 9.68 154.74 9.90L154.74 9.90L154.74 9.90Q156.27 10.15 156.90 10.63L156.90 10.63L156.90 10.63Q157.53 11.11 157.53 11.98L157.53 11.98L157.53 11.98Q157.53 12.95 156.71 13.52L156.71 13.52L156.71 13.52Q155.89 14.10 154.51 14.10L154.51 14.10ZM162.02 4.99L162.02 4.99Q161.73 4.99 161.56 4.82L161.56 4.82L161.56 4.82Q161.39 4.65 161.39 4.37L161.39 4.37L161.39 4.37Q161.39 4.08 161.56 3.91L161.56 3.91L161.56 3.91Q161.73 3.73 162.02 3.73L162.02 3.73L162.02 3.73Q162.30 3.73 162.48 3.91L162.48 3.91L162.48 3.91Q162.65 4.08 162.65 4.37L162.65 4.37L162.65 4.37Q162.65 4.65 162.48 4.82L162.48 4.82L162.48 4.82Q162.30 4.99 162.02 4.99L162.02 4.99ZM162.39 6.45L162.39 13.95L161.64 13.95L161.64 6.45L162.39 6.45ZM170.95 12.85L171.22 13.47L171.22 13.47Q170.92 13.77 170.48 13.93L170.48 13.93L170.48 13.93Q170.05 14.10 169.52 14.10L169.52 14.10L169.52 14.10Q168.61 14.10 168.09 13.60L168.09 13.60L168.09 13.60Q167.57 13.09 167.57 12.07L167.57 12.07L167.57 7.09L166.07 7.09L166.07 6.45L167.57 6.45L167.57 4.57L168.32 4.37L168.32 6.45L171.14 6.45L171.14 7.09L168.32 7.09L168.32 11.97L168.32 11.97Q168.32 12.67 168.66 13.04L168.66 13.04L168.66 13.04Q169.00 13.41 169.64 13.41L169.64 13.41L169.64 13.41Q170.39 13.41 170.95 12.85L170.95 12.85ZM175.11 4.99L175.11 4.99Q174.82 4.99 174.65 4.82L174.65 4.82L174.65 4.82Q174.48 4.65 174.48 4.37L174.48 4.37L174.48 4.37Q174.48 4.08 174.65 3.91L174.65 3.91L174.65 3.91Q174.82 3.73 175.11 3.73L175.11 3.73L175.11 3.73Q175.39 3.73 175.57 3.91L175.57 3.91L175.57 3.91Q175.74 4.08 175.74 4.37L175.74 4.37L175.74 4.37Q175.74 4.65 175.57 4.82L175.57 4.82L175.57 4.82Q175.39 4.99 175.11 4.99L175.11 4.99ZM175.48 6.45L175.48 13.95L174.73 13.95L174.73 6.45L175.48 6.45ZM183.26 6.30L183.26 6.30Q184.92 6.30 185.88 7.34L185.88 7.34L185.88 7.34Q186.83 8.38 186.83 10.20L186.83 10.20L186.83 10.20Q186.83 12.01 185.88 13.06L185.88 13.06L185.88 13.06Q184.92 14.10 183.26 14.10L183.26 14.10L183.26 14.10Q181.59 14.10 180.64 13.06L180.64 
     13.06L180.64 13.06Q179.69 12.01 179.69 10.20L179.69 10.20L179.69 10.20Q179.69 8.38 180.64 7.34L180.64 7.34L180.64 
     7.34Q181.59 6.30 183.26 6.30L183.26 6.30ZM183.26 6.94L183.26 6.94Q181.94 6.94 181.19 7.81L181.19 7.81L181.19 
     7.81Q180.44 8.68 180.44 10.20L180.44 10.20L180.44 10.20Q180.44 11.71 181.19 12.58L181.19 12.58L181.19 12.58Q181.94
      13.46 183.26 13.46L183.26 13.46L183.26 13.46Q184.58 13.46 185.33 12.58L185.33 12.58L185.33 12.58Q186.08 11.71 
      186.08 10.20L186.08 10.20L186.08 10.20Q186.08 8.68 185.33 7.81L185.33 7.81L185.33 7.81Q184.58 6.94 183.26 
      6.94L183.26 6.94ZM194.53 6.30L194.53 6.30Q195.82 6.30 196.61 7.02L196.61 7.02L196.61 7.02Q197.39 7.74 197.39
       9.09L197.39 9.09L197.39 13.95L196.64 13.95L196.64 9.33L196.64 9.33Q196.64 8.13 196.06 7.54L196.06 7.54L196.06 
       7.54Q195.47 6.96 194.45 6.96L194.45 6.96L194.45 6.96Q193.73 6.96 193.12 7.29L193.12 7.29L193.12 7.29Q192.50 
       7.62 192.14 8.25L192.14 8.25L192.14 8.25Q191.77 8.88 191.77 9.72L191.77 9.72L191.77 13.95L191.02 13.95L191.02 
       6.45L191.69 6.45L191.72 7.96L191.72 7.96Q192.08 7.15 192.83 6.73L192.83 6.73L192.83 6.73Q193.57 6.30 194.53 
       6.30L194.53 6.30Z" transform="rotate(0 99.47500085830688 10.050000190734863)"></path>
    </g>
</svg>

